<svg width="45" height="44" viewBox="0 0 45 44" fill="none" xmlns="http://www.w3.org/2000/svg">
<g clip-path="url(#clip0)">
<path d="M31.2857 0H5.14286C2.30254 0 0 2.31758 0 5.17647V31.4902C0 34.3491 2.30254 36.6667 5.14286 36.6667H31.2857C34.126 36.6667 36.4286 34.3491 36.4286 31.4902V5.17647C36.4286 2.31758 34.126 0 31.2857 0Z" fill="#FFC700"/>
<path d="M39.8571 22.4314H27.8571C25.4902 22.4314 23.5714 24.3627 23.5714 26.7451V38.8236C23.5714 41.206 25.4902 43.1373 27.8571 43.1373H39.8571C42.2241 43.1373 44.1428 41.206 44.1428 38.8236V26.7451C44.1428 24.3627 42.2241 22.4314 39.8571 22.4314Z" fill="#76C893" stroke="white" stroke-width="4"/>
</g>
<defs>
<clipPath id="clip0">
<rect width="45" height="44" fill="white"/>
</clipPath>
</defs>
</svg>
